<svg id="img" viewBox="0 0 70 70" xml:space="preserve" xmlns="http://www.w3.org/2000/svg"><path fill="currentColor" d="M36 21c0-2.206-1.794-4-4-4s-4 1.794-4 4 1.794 4 4 4 4-1.794 4-4m-6 0c0-1.103.897-2 2-2s2 .897 2 2-.897 2-2 2-2-.897-2-2m-3 20v6h10v-6h-2V27h-8v6h2v8zm2-10v-2h4v14h2v2h-6v-2h2V31z"/><path fill="currentColor" d="M32 1C14.907 1 1 14.907 1 32s13.907 31 31 31 31-13.907 31-31S49.093 1 32 1m0 60C16.009 61 3 47.991 3 32S16.009 3 32 3s29 13.009 29 29-13.009 29-29 29"/><path fill="currentColor" d="M32 7a24.82 24.82 0 0 0-14.512 4.649l1.162 1.628A22.84 22.84 0 0 1 32 9c12.682 0 23 10.318 23 23a22.84 22.84 0 0 1-4.277 13.35l1.628 1.162A24.82 24.82 0 0 0 57 32C57 18.215 45.785 7 32 7m0 48C19.318 55 9 44.682 9 32c0-4.817 1.479-9.433 4.277-13.35l-1.627-1.162A24.82 24.82 0 0 0 7 32c0 13.785 11.215 25 25 25a24.82 24.82 0 0 0 14.512-4.649l-1.162-1.628A22.84 22.84 0 0 1 32 55"/></svg>