<svg id="img" width="900" height="900" viewBox="0 0 800 800" xmlns="http://www.w3.org/2000/svg" fill="none">
    <path fill="currentColor"
        d="M6.624.334a.75.75 0 0 0-1.248.832L6.599 3H2.25A2.25 2.25 0 0 0 0 5.25v7.5A2.25 2.25 0 0 0 2.25 15h11.5A2.25 2.25 0 0 0 16 12.75v-7.5A2.25 2.25 0 0 0 13.75 3H9.401l1.223-1.834A.75.75 0 1 0 9.376.334L8 2.398zM7.989 4.5h5.761a.75.75 0 0 1 .75.75v7.5a.75.75 0 0 1-.75.75H2.25a.75.75 0 0 1-.75-.75v-7.5a.75.75 0 0 1 .75-.75z"
        clip-rule="evenodd" />
</svg>